# xmcd
#
# Track frame offsets: 
#        150
#        32329
#        43446
#        63178
#        81738
#        110637
#        146212
#        161282
#        176285
#        200009
#        217504
#        252952
#        273991
#        294800
#        310522
#        337931
#
# Disc length: 4767 seconds
#
# Revision: 3
# Processed by: cddbd v1.5.2PL0 Copyright (c) Steve Scherf et al.
# Submitted via: ExactAudioCopy v1.3
#
DISCID=de129d10
DTITLE=Various Artist - Akella Presents - vol. 07 - Black Pure Blues 
DTITLE=CD2
DYEAR=2010
DGENRE=Blues
TTITLE0=AARON BURTON - Stuck in Chicago
TTITLE1=KEB' MO' - Stand Up (And Be Strong)
TTITLE2=TROY TURNER - Lonely Cafe
TTITLE3=LONNIE BROOCKS - Before You Go
TTITLE4=BO DIDDLEY - That Mule
TTITLE5=JUNIOR WELLS - Cry for Me Baby
TTITLE6=JAMES BROWN - Send Her Back to Me (Remix)
TTITLE7=PINETOP PERKINS - What's the Matter with You
TTITLE8=RAY CHARLES - Mother
TTITLE9=KENNY NEAL - My Babe
TTITLE10=LIL' ED and BLUES IMPERIALS - I Still Love You
TTITLE11=The BONE SHAKERS - I'm Living All of My Days for You
TTITLE12=LUCKY PETERSON - Move on You
TTITLE13=MUDDY WATERS - Blind Man Blues
TTITLE14=JOE LOUIS WALKER - Fix Our Love
TTITLE15=JAKE SAMPSON - Shadow At Midnight
EXTD=
EXTT0=
EXTT1=
EXTT2=
EXTT3=
EXTT4=
EXTT5=
EXTT6=
EXTT7=
EXTT8=
EXTT9=
EXTT10=
EXTT11=
EXTT12=
EXTT13=
EXTT14=
EXTT15=
PLAYORDER=
